<?xml version="1.0" encoding="utf-8"?>
<!-- Generator: Adobe Illustrator 26.0.1, SVG Export Plug-In . SVG Version: 6.00 Build 0)  -->
<svg version="1.1" id="Tomortec" x="0px" y="0px"
	 viewBox="0 0 1024 1024" style="enable-background:new 0 0 1024 1024;" xml:space="preserve">
<style type="text/css">
	#Earth .st0{fill:none;stroke:#F2B843;stroke-width:20;stroke-miterlimit:10;}
	#Earth .st1{fill:#3DC38A;}
	#Earth .st2{fill:#2F9B77;}
	#Earth .st3{fill:#F2B843;}
	#Earth .st4{fill:none;stroke:#F3BF56;stroke-width:20;stroke-miterlimit:10;}
	#Rocket .st5{fill:#2080A5;}
	#Rocket .st6{fill:#3A4887;}
	#Rocket .st7{fill:#368DAE;}
	#Rocket .st8{fill:#4D5A93;}
</style>
<g id="Earth">
	<path id="EarthOrbit" class="st0" d="M990.7,336.4c26,60.6-167.3,201.6-431.6,314.8S59.3,807,33.3,746.4"/>
	<path class="st1" d="M737.6,683.3c-94.8,127.6-275,154.5-402.7,60.1s-154.3-274.6-59.7-402.2c94.8-127.6,275-154.5,402.7-60.1
		S832.3,555.7,737.6,683.3L737.6,683.3z"/>
	<path class="st2" d="M680.5,283L680.5,283c-53.3-13.3-63.5,8.3-64.7,23.3c-0.5,7-5,13.1-11.4,15.7c-0.6,0.2-1.2,0.4-1.8,0.6
		c-8.8,2.5-18.2-1.7-21.9-10.1c-15.3-35-6.5-79.9-6.5-79.9C612.6,241.9,648.9,259.1,680.5,283z"/>
	<path class="st2" d="M772.6,404.7c13,31.9,19.9,64.7,21.3,97.2l0,0c-14.5-11.1-24.8-27-31.9-41.9c-7.8-16.5-28.3-22.9-43.9-13.5
		c-0.3,0.2-0.6,0.4-1,0.6c-21.8,12.8-49.7,5.1-62.3-16.8c-5.6-9.9-9.9-19.2-13-27.9c0,0-13.5-42.3-1.9-70c2.3-5.5,4.5-10,6.6-13.5
		c3.1-4.9,7.9-8.4,13.6-9.9c20.2-5.5,33.2-14.5,33.2-14.5C727.1,323.4,754.6,360.6,772.6,404.7z"/>
	<path class="st3" d="M458.3,273.7l-14.9,55.7c-17.6-30.7-67.4-42.4-56.9-45.8C439,266.8,458.3,273.7,458.3,273.7z"/>
	<path class="st2" d="M409.8,346c15.9,9.5,19,31.2,6.4,44.7c-19.3,20.7-44.6,51.4-51.9,75.9c-3.1,10.4-11.8,18.1-22.5,19.6
		c-13.4,1.9-28.7,8.6-31.2,28.4c-4.7,36.6,74.7,43.2,86.5,82.6c-0.1-0.1-0.1-0.2-0.2-0.3c-6.1-8.3-15.8-13.3-26.2-13.4
		c-27-0.4-54-7.3-76.9-25.6c-50-40.1-55.4-110.4-52-158.8c14.9-34.1,36.2-65.3,63.3-91.7C305,307.5,360.9,316.9,409.8,346z"/>
	<path class="st3" d="M556.6,582.2c27.1,4.2,44.3,31.4,36.3,57.6c-4.5,14.8-10,30.8-15.6,46.6l-20.2,53.1
		c-9.7,24.8-13.7,33.6-13.7,33.6c-34.4-22.3-51.2-84.8-51.2-84.8l-29.1-6.4c-21.4-4.7-38.5-20.7-44.5-41.7
		c-5.6-19.6-13.4-33.3-19.7-42c16.7-13.9,34.8-24.9,47.8-32c10.1-5.5,22.2-6.4,33-2.2C501,572.3,531.4,578.3,556.6,582.2z"/>
	<path class="st4" d="M33.3,746.4C16,706,96,629.9,229.6,550.2c66.9-39.9,147.2-80.8,235.4-118.6
		c264.4-113.2,499.7-155.8,525.7-95.2"/>
</g>
<g id="Rocket">
	<path class="st5" d="M679.6,361.9c1.3-3.6,1.2-7.4-0.1-10.8l0,0l0,0c-1.3-3.3-3.9-6.2-7.3-7.9c-0.1-0.1-0.7-0.3-1.6-0.8
		c-0.5-0.2-1.1-0.5-1.7-0.8c-0.7-0.3-1.4-0.6-2.3-1l0,0l0,0c-3-1.3-7.3-3.1-12.7-5c-1.9-0.7-4-1.4-6.2-2.1c-1.1-0.4-2.2-0.7-3.4-1.1
		c-2.3-0.7-4.8-1.4-7.3-2.1c-1.3-0.3-2.6-0.7-3.9-1c-0.7-0.2-1.3-0.3-2-0.5c-4.1-1-8.3-1.9-12.8-2.8c-0.7-0.1-1.5-0.3-2.2-0.4
		c-24.8-4.3-54.8-5-82.9,6.2L493,347.7l0,0l-45.3-35.2c-4.2-3.3-9.9-4.1-14.8-2.1l-105.8,42c-5,2-8.6,6.5-9.4,11.9s1.4,10.7,5.7,14
		l31.3,24.3l-31.6,12.5c-3.7,1.5-6.7,4.4-8.3,8c-1.6,3.7-1.6,7.8-0.2,11.5l21,52.9l21,52.9c1.5,3.7,4.4,6.7,8,8.3
		c3.7,1.6,7.8,1.6,11.5,0.2l31.6-12.5l-6.1,39.2c-0.8,5.4,1.3,10.7,5.5,14.1c1.1,0.8,2.2,1.5,3.4,2.1c3.6,1.6,7.8,1.7,11.5,0.2
		l105.8-42c5-2,8.5-6.4,9.3-11.7l8.8-56.7l40.1-15.9C650.2,440.2,678.4,365,679.6,361.9z"/>
	<path class="st6" d="M537.4,538.2l8.8-56.7l-7.4,2.9c-0.4,0.2-0.8,0.3-1.2,0.5l-7.7,3l-97.5,38.7l0,0c-2.5,1-5.2,1.3-7.9,0.9
		c-1.3-0.2-2.5-0.5-3.7-1c-3.7-1.6-6.6-4.6-8-8.3l0,0l-1.5-3.8l-19.5-49.1l-15.4-38.9l-4.1-10.2l-1.5-3.8l0,0
		c-2-5.2-1-10.7,2.1-14.8c1.6-2.1,3.7-3.7,6.3-4.8l8-3.2l73.2-29.1l16.3-6.5l16.3-6.5l-45.3-35.2c-4.2-3.3-9.9-4.1-14.8-2.1
		l-105.8,42c-5,2-8.6,6.5-9.4,11.9s1.4,10.7,5.7,14l31.3,24.3l-31.6,12.5c-3.7,1.5-6.7,4.4-8.3,8c-1.6,3.7-1.6,7.8-0.2,11.5l21,52.9
		l21,52.9c1.5,3.7,4.4,6.7,8,8.3c3.7,1.6,7.8,1.6,11.5,0.2l31.6-12.5l-6.1,39.2c-0.8,5.4,1.3,10.7,5.5,14.1c1.1,0.8,2.2,1.5,3.4,2.1
		c3.6,1.6,7.8,1.7,11.5,0.2l105.8-42C533,547.9,536.6,543.5,537.4,538.2z"/>
	<path class="st7" d="M460.5,360.6l-73.2,29.1l-8,3.2c-2.6,1-4.7,2.7-6.3,4.8c-3.2,4.1-4.2,9.7-2.1,14.8l0,0l1.5,3.8l4.1,10.2
		l15.4,38.9l287.7-114.3c-1.3-3.3-3.9-6.2-7.3-7.9c-0.2-0.1-2.2-1.1-5.6-2.6c-17.5-7.6-78.9-30.5-133.4-8.8L493,347.7l-16.3,6.5
		L460.5,360.6z"/>
	<path class="st8" d="M447.7,312.4c-4.2-3.3-9.9-4.1-14.8-2.1l-105.8,42c-5,2-8.6,6.5-9.4,11.9s1.4,10.7,5.7,14l31.3,24.3L323.1,415
		c-3.7,1.5-6.7,4.4-8.3,8c-1.6,3.7-1.6,7.8-0.2,11.5l21,52.9l56.1-22.3l-15.4-38.9l-4.1-10.2l-1.5-3.8l0,0c-2-5.2-1-10.7,2.1-14.8
		c1.6-2.1,3.7-3.7,6.3-4.8l8-3.2l73.2-29.1l16.3-6.5l16.3-6.5L447.7,312.4z"/>
</g>
</svg>
